<svg xmlns="http://www.w3.org/2000/svg" width="172.076" height="172.076" viewBox="0 0 172.076 172.076"><defs><style>.a{fill:none;stroke-width:2px;}.a,.b,.c{stroke:#858585;}.b,.c{fill:#858585;}.c{stroke-width:0.8px;}</style></defs><g transform="translate(-570.358 -544.596)"><path class="a" d="M85.038,0A85.022,85.022,0,1,1,15.912,35.5" transform="translate(571.358 545.596)"/><path class="a" d="M145.024,42.243A72.512,72.512,0,1,1,13.568,0" transform="translate(697.556 558.393) rotate(90)"/><path class="a" d="M0,42.243A72.4,72.4,0,0,1,13.568,0" transform="translate(673.775 712.161) rotate(-132)"/><path class="b" d="M27.334,26.817a9.11,9.11,0,0,1,9.1,9.1c0,.038,0,.076-.007.113,0,.059-.008.12-.009.179l-.032,1.013,1.006.118a5.788,5.788,0,0,1-.682,11.536c-.031,0-.063,0-.094-.006s-.091-.006-.136-.007L35.33,48.83v.045H12.116l-.377-.042a6.337,6.337,0,0,1-1.4-12.275l.717-.253.019-.76a3.853,3.853,0,0,1,6.26-2.92l1.114.891.581-1.3a9.115,9.115,0,0,1,8.307-5.4m0-1.1a10.2,10.2,0,0,0-9.313,6.05,4.956,4.956,0,0,0-8.052,3.755A7.439,7.439,0,0,0,11.618,49.93v.048H36.433v-.013c.092,0,.182.013.276.013a6.891,6.891,0,0,0,.81-13.735c0-.11.017-.217.017-.328a10.2,10.2,0,0,0-10.2-10.2" transform="translate(567.354 520.547)"/><path class="b" d="M17.942,26.353a5.279,5.279,0,0,1,5.273,5.273c0,.022,0,.044,0,.066s0,.069-.005.1l-.019.587.583.068a3.354,3.354,0,0,1-.4,6.685c-.018,0-.036,0-.054,0l-.079,0-.666-.019v.026H9.124l-.219-.024A3.672,3.672,0,0,1,8.092,32l.415-.147.011-.44a2.233,2.233,0,0,1,3.628-1.692l.645.516.337-.755a5.282,5.282,0,0,1,4.814-3.127m0-.639a5.91,5.91,0,0,0-5.4,3.506A2.872,2.872,0,0,0,7.879,31.4a4.311,4.311,0,0,0,.956,8.351v.028h14.38v-.008c.053,0,.105.008.16.008a3.993,3.993,0,0,0,.47-7.959c0-.064.01-.126.01-.19a5.912,5.912,0,0,0-5.912-5.912" transform="translate(692.557 552.759)"/><g transform="translate(612.61 579.801)"><path class="c" d="M-17.267-117.926H-28.624l-.259-.2a6.838,6.838,0,0,0-4.077-1.373h-4.1V-123.6a6.845,6.845,0,0,0-6.772-6.756,6.891,6.891,0,0,0-4.895,1.939,6.83,6.83,0,0,0-2.092,4.833v4.09h-4.1A6.836,6.836,0,0,0-59-118.119l-.259.193H-70.619a6.9,6.9,0,0,0-6.878,6.88v6.882h1.214v-6.882a5.679,5.679,0,0,1,5.674-5.672h9.992l-.6,1.359a6.765,6.765,0,0,0-.584,2.747l0,.965h-7.238a2.175,2.175,0,0,0-2.175,2.171v8.45h1.208v-9.416h8.2v5.674a.607.607,0,0,0,.605.605h34.522a.606.606,0,0,0,.6-.605v-5.674h8.21v25.107h1.21v-24.141a2.173,2.173,0,0,0-2.171-2.173H-26.07l0-.967a6.7,6.7,0,0,0-.582-2.745l-.6-1.359h9.99a5.679,5.679,0,0,1,5.674,5.672v25.712h1.2v-25.712A6.9,6.9,0,0,0-17.267-117.926ZM-27.29-105.372H-60.6v-3.5H-27.29Zm0-4.709H-60.6v-2.534a5.679,5.679,0,0,1,5.666-5.672h4.717a.605.605,0,0,0,.6-.605V-123.6a5.682,5.682,0,0,1,5.676-5.676,5.681,5.681,0,0,1,5.674,5.676v4.707a.606.606,0,0,0,.6.605h4.7a5.68,5.68,0,0,1,5.674,5.674Z" transform="translate(85.778 130.356)"/><path class="c" d="M-79.682-112.469a6.835,6.835,0,0,0-2.1,4.831,6.825,6.825,0,0,0,1.935,4.9l27.732,27.732a.582.582,0,0,0,.305.166l5.285,1.057-.05-.124,3.331,3.331a3.835,3.835,0,0,0,5.291,0,3.748,3.748,0,0,0,0-5.293l-3.2-3.2-1.075-5.368a.617.617,0,0,0-.164-.3l-27.74-27.736A6.844,6.844,0,0,0-79.682-112.469Zm6.65,14.84,3.588-3.588L-49.21-80.978-52.8-77.4ZM-41.7-77.916l2.9,2.9a2.534,2.534,0,0,1,.017,3.514,2.528,2.528,0,0,1-1.836.787,2.515,2.515,0,0,1-1.748-.7l-2.921-2.919Zm-.655-1.048-3.984,3.984-5.975-1.2,8.759-8.759Zm-2.418-6.462-3.58,3.584-20.23-20.234L-65-105.655ZM-65.86-106.492l-8.02,8-2.472-2.476,8.022-8.02Zm-11.351,4.684L-79-103.6a5.679,5.679,0,0,1,0-8.024,5.68,5.68,0,0,1,8.024,0l1.792,1.79Z" transform="translate(81.781 145.23)"/><path class="c" d="M-64.231-88.535h-8.813v-9.416h-1.2v21a2.174,2.174,0,0,0,2.171,2.171h31.983v-1.2h-20.4v-8.811A3.745,3.745,0,0,0-64.231-88.535Zm-8.813,12.554V-86.476l10.495,10.495Zm11.347-.851-10.5-10.5h7.964A2.543,2.543,0,0,1-61.7-84.792Z" transform="translate(88.809 160.594)"/><path class="c" d="M-76.29-101.2H-77.5v28.842a6.9,6.9,0,0,0,6.88,6.878H-22.94v-1.2H-70.618a5.678,5.678,0,0,1-5.672-5.672Z" transform="translate(85.777 157.565)"/><path class="c" d="M-51.388-98.8a6.89,6.89,0,0,0,6.878-6.882,6.941,6.941,0,0,0-7.647-6.835l.305,1.183a5.687,5.687,0,0,1,5.944,4.23,5.68,5.68,0,0,1-4.067,6.911,5.693,5.693,0,0,1-6.588-3.155l-1.181.307A6.882,6.882,0,0,0-51.388-98.8Z" transform="translate(104.209 146.962)"/><path class="c" d="M-21.623-69l-7.727-7.727a15.639,15.639,0,0,0,4.465-10.945,15.718,15.718,0,0,0-15.7-15.7,15.718,15.718,0,0,0-15.7,15.7,15.719,15.719,0,0,0,15.7,15.7A15.612,15.612,0,0,0-30.338-75.8l7.758,7.758ZM-54.933-87.671a14.365,14.365,0,0,1,14.348-14.348A14.365,14.365,0,0,1-26.238-87.671a14.365,14.365,0,0,1-14.348,14.35A14.365,14.365,0,0,1-54.933-87.671Z" transform="translate(105.57 155.537)"/></g></g></svg>