<svg xmlns="http://www.w3.org/2000/svg" width="32" height="32" viewBox="0 0 32 32"><defs><style>.a{fill:#fff;stroke:#d5d5d5;stroke-width:0.6px;opacity:0;}.b{fill:#858585;}.c{stroke:none;}.d{fill:none;}</style></defs><g transform="translate(-0.483)"><g class="a" transform="translate(0.483)"><rect class="c" width="32" height="32" rx="6"/><rect class="d" x="0.3" y="0.3" width="31.4" height="31.4" rx="5.7"/></g><path class="b" d="M18.964,17.684,15.9,14.628a7.139,7.139,0,0,0,1.523-4.417,7.211,7.211,0,1,0-7.211,7.211A7.139,7.139,0,0,0,14.628,15.9l3.056,3.065a.905.905,0,1,0,1.28-1.28ZM4.8,10.211a5.409,5.409,0,1,1,5.409,5.409A5.409,5.409,0,0,1,4.8,10.211Z" transform="translate(4.362 4.887)"/></g></svg>